<svg width="1280" height="420" viewBox="0 0 1280 420" fill="none" xmlns="http://www.w3.org/2000/svg" role="img" aria-labelledby="title desc">
  <title id="title">Neon README profile banner</title>
  <desc id="desc">A dark neon banner reading README profile flex with low info high style lanyard powered.</desc>
  <defs>
    <linearGradient id="bg" x1="0" y1="0" x2="1280" y2="420" gradientUnits="userSpaceOnUse">
      <stop offset="0" stop-color="#05070D"/>
      <stop offset="0.35" stop-color="#0B1020"/>
      <stop offset="0.68" stop-color="#160C26"/>
      <stop offset="1" stop-color="#071A1D"/>
    </linearGradient>
    <radialGradient id="cyanGlow" cx="0" cy="0" r="1" gradientUnits="userSpaceOnUse" gradientTransform="translate(238 82) rotate(58) scale(335 255)">
      <stop stop-color="#26F7FF" stop-opacity="0.82"/>
      <stop offset="1" stop-color="#26F7FF" stop-opacity="0"/>
    </radialGradient>
    <radialGradient id="roseGlow" cx="0" cy="0" r="1" gradientUnits="userSpaceOnUse" gradientTransform="translate(1034 120) rotate(128) scale(330 245)">
      <stop stop-color="#FF4FD8" stop-opacity="0.75"/>
      <stop offset="1" stop-color="#FF4FD8" stop-opacity="0"/>
    </radialGradient>
    <radialGradient id="limeGlow" cx="0" cy="0" r="1" gradientUnits="userSpaceOnUse" gradientTransform="translate(902 350) rotate(26) scale(230 150)">
      <stop stop-color="#96FF6B" stop-opacity="0.45"/>
      <stop offset="1" stop-color="#96FF6B" stop-opacity="0"/>
    </radialGradient>
    <linearGradient id="stroke" x1="77" y1="70" x2="1177" y2="350" gradientUnits="userSpaceOnUse">
      <stop stop-color="#2EF7FF"/>
      <stop offset="0.48" stop-color="#FF4FD8"/>
      <stop offset="1" stop-color="#F8D64E"/>
    </linearGradient>
    <linearGradient id="textFill" x1="95" y1="175" x2="817" y2="269" gradientUnits="userSpaceOnUse">
      <stop stop-color="#FFFFFF"/>
      <stop offset="0.52" stop-color="#C9FBFF"/>
      <stop offset="1" stop-color="#FFE6F7"/>
    </linearGradient>
    <filter id="softGlow" x="-80" y="-80" width="1440" height="580" color-interpolation-filters="sRGB">
      <feGaussianBlur stdDeviation="16" result="blur"/>
      <feColorMatrix in="blur" type="matrix" values="1 0 0 0 0.1 0 1 0 0 0.85 0 0 1 0 1 0 0 0 0.65 0"/>
      <feBlend in="SourceGraphic" mode="screen"/>
    </filter>
    <filter id="textGlow" x="65" y="120" width="860" height="170" color-interpolation-filters="sRGB">
      <feDropShadow dx="0" dy="0" stdDeviation="10" flood-color="#31F7FF" flood-opacity="0.45"/>
      <feDropShadow dx="0" dy="0" stdDeviation="18" flood-color="#FF4FD8" flood-opacity="0.28"/>
    </filter>
    <style>
      .scan { animation: scan 6s ease-in-out infinite; }
      .float-a { animation: floatA 8s ease-in-out infinite; }
      .float-b { animation: floatB 9s ease-in-out infinite; }
      .pulse { animation: pulse 3.8s ease-in-out infinite; transform-origin: center; }
      @keyframes scan {
        0%, 100% { transform: translateX(-140px); opacity: 0.15; }
        50% { transform: translateX(1160px); opacity: 0.35; }
      }
      @keyframes floatA {
        0%, 100% { transform: translate(0, 0); }
        50% { transform: translate(18px, -14px); }
      }
      @keyframes floatB {
        0%, 100% { transform: translate(0, 0); }
        50% { transform: translate(-16px, 18px); }
      }
      @keyframes pulse {
        0%, 100% { opacity: 0.65; }
        50% { opacity: 1; }
      }
    </style>
  </defs>

  <rect width="1280" height="420" rx="34" fill="url(#bg)"/>
  <rect width="1280" height="420" rx="34" fill="url(#cyanGlow)"/>
  <rect width="1280" height="420" rx="34" fill="url(#roseGlow)"/>
  <rect width="1280" height="420" rx="34" fill="url(#limeGlow)"/>

  <g opacity="0.24">
    <path d="M0 90H1280M0 160H1280M0 230H1280M0 300H1280M0 370H1280" stroke="#B7F8FF" stroke-width="1"/>
    <path d="M100 0V420M220 0V420M340 0V420M460 0V420M580 0V420M700 0V420M820 0V420M940 0V420M1060 0V420M1180 0V420" stroke="#B7F8FF" stroke-width="1"/>
  </g>

  <g class="float-a" filter="url(#softGlow)">
    <circle cx="1070" cy="98" r="76" fill="#FF4FD8" opacity="0.22"/>
    <circle cx="1112" cy="140" r="20" fill="#F8D64E" opacity="0.88"/>
  </g>
  <g class="float-b" filter="url(#softGlow)">
    <circle cx="225" cy="330" r="54" fill="#31F7FF" opacity="0.2"/>
    <circle cx="184" cy="286" r="13" fill="#96FF6B" opacity="0.9"/>
  </g>

  <rect x="70" y="64" width="1140" height="292" rx="30" fill="#070A12" fill-opacity="0.68" stroke="url(#stroke)" stroke-width="2"/>
  <rect class="scan" x="80" y="66" width="120" height="288" rx="24" fill="#FFFFFF" opacity="0.14"/>

  <g opacity="0.72">
    <path d="M828 250C884 199 928 294 979 237C1018 193 1054 195 1104 220" stroke="#31F7FF" stroke-width="4" stroke-linecap="round"/>
    <path d="M828 287C890 238 931 331 990 277C1028 242 1066 244 1112 270" stroke="#FF4FD8" stroke-width="4" stroke-linecap="round"/>
  </g>

  <g filter="url(#textGlow)">
    <text x="96" y="145" fill="#88F9FF" font-family="Inter, Segoe UI, Arial, sans-serif" font-size="24" font-weight="800">README</text>
    <text x="94" y="230" fill="url(#textFill)" font-family="Inter, Segoe UI, Arial, sans-serif" font-size="82" font-weight="900">PROFILE FLEX</text>
    <text x="100" y="282" fill="#B8C4D8" font-family="Inter, Segoe UI, Arial, sans-serif" font-size="24" font-weight="650">LOW INFO / HIGH STYLE / LANYARD POWERED</text>
  </g>

  <g class="pulse">
    <rect x="96" y="308" width="174" height="34" rx="17" fill="#31F7FF" fill-opacity="0.14" stroke="#31F7FF" stroke-opacity="0.75"/>
    <text x="122" y="331" fill="#D7FDFF" font-family="Inter, Segoe UI, Arial, sans-serif" font-size="14" font-weight="800">NO OVERSHARE</text>
    <rect x="288" y="308" width="137" height="34" rx="17" fill="#FF4FD8" fill-opacity="0.14" stroke="#FF4FD8" stroke-opacity="0.75"/>
    <text x="315" y="331" fill="#FFE1F8" font-family="Inter, Segoe UI, Arial, sans-serif" font-size="14" font-weight="800">JUST LOOKS</text>
    <rect x="443" y="308" width="121" height="34" rx="17" fill="#F8D64E" fill-opacity="0.14" stroke="#F8D64E" stroke-opacity="0.75"/>
    <text x="472" y="331" fill="#FFF6C7" font-family="Inter, Segoe UI, Arial, sans-serif" font-size="14" font-weight="800">CLEAN</text>
  </g>

  <g opacity="0.9">
    <circle cx="1096" cy="300" r="4" fill="#31F7FF"/>
    <circle cx="1124" cy="300" r="4" fill="#FF4FD8"/>
    <circle cx="1152" cy="300" r="4" fill="#F8D64E"/>
  </g>
</svg>
